<svg xmlns="http://www.w3.org/2000/svg" version="1.1" xmlns:xlink="http://www.w3.org/1999/xlink" xmlns:svgjs="http://svgjs.dev/svgjs" width="1440" height="580" preserveAspectRatio="none" viewBox="0 0 1440 580"><g mask="url(&quot;#SvgjsMask3579&quot;)" fill="none"><rect width="1440" height="580" x="0" y="0" fill="url(&quot;#SvgjsLinearGradient3580&quot;)"></rect><path d="M-81.83 530.74L-81.83 530.74" stroke="#132e65" stroke-width="1.5"></path><path d="M-81.83 530.74L64.04 510.11" stroke="#132e65" stroke-width="1.5"></path><path d="M-81.83 530.74L-68.2 703.05" stroke="#132e65" stroke-width="1.5"></path><path d="M-81.83 530.74L68.19 369.82" stroke="#132e65" stroke-width="1.5"></path><path d="M-81.83 530.74L75.3 693.01" stroke="#132e65" stroke-width="1.5"></path><path d="M-81.83 530.74L190.32 371.73" stroke="#132e65" stroke-width="1.5"></path><path d="M-81.83 530.74L200.43 694.97" stroke="#132e65" stroke-width="1.5"></path><path d="M-68.2 703.05L-68.2 703.05" stroke="#132e65" stroke-width="1.5"></path><path d="M-68.2 703.05L75.3 693.01" stroke="#132e65" stroke-width="1.5"></path><path d="M-68.2 703.05L64.04 510.11" stroke="#132e65" stroke-width="1.5"></path><path d="M-68.2 703.05L200.43 694.97" stroke="#132e65" stroke-width="1.5"></path><path d="M68.19 369.82L68.19 369.82" stroke="#132e65" stroke-width="1.5"></path><path d="M68.19 369.82L190.32 371.73" stroke="#132e65" stroke-width="1.5"></path><path d="M68.19 369.82L64.04 510.11" stroke="#132e65" stroke-width="1.5"></path><path d="M68.19 369.82L256.81 488.58" stroke="#132e65" stroke-width="1.5"></path><path d="M68.19 369.82L354.99 390.61" stroke="#132e65" stroke-width="1.5"></path><path d="M64.04 510.11L64.04 510.11" stroke="#132e65" stroke-width="1.5"></path><path d="M64.04 510.11L75.3 693.01" stroke="#132e65" stroke-width="1.5"></path><path d="M75.3 693.01L75.3 693.01" stroke="#132e65" stroke-width="1.5"></path><path d="M75.3 693.01L200.43 694.97" stroke="#132e65" stroke-width="1.5"></path><path d="M75.3 693.01L256.81 488.58" stroke="#132e65" stroke-width="1.5"></path><path d="M190.32 371.73L190.32 371.73" stroke="#132e65" stroke-width="1.5"></path><path d="M190.32 371.73L256.81 488.58" stroke="#132e65" stroke-width="1.5"></path><path d="M190.32 371.73L354.99 390.61" stroke="#132e65" stroke-width="1.5"></path><path d="M256.81 488.58L256.81 488.58" stroke="#132e65" stroke-width="1.5"></path><path d="M256.81 488.58L368.48 517.8" stroke="#132e65" stroke-width="1.5"></path><path d="M200.43 694.97L200.43 694.97" stroke="#132e65" stroke-width="1.5"></path><path d="M200.43 694.97L357.09 675.83" stroke="#132e65" stroke-width="1.5"></path><path d="M200.43 694.97L256.81 488.58" stroke="#132e65" stroke-width="1.5"></path><path d="M354.99 390.61L354.99 390.61" stroke="#132e65" stroke-width="1.5"></path><path d="M354.99 390.61L368.48 517.8" stroke="#132e65" stroke-width="1.5"></path><path d="M354.99 390.61L256.81 488.58" stroke="#132e65" stroke-width="1.5"></path><path d="M354.99 390.61L521.13 370.35" stroke="#132e65" stroke-width="1.5"></path><path d="M368.48 517.8L368.48 517.8" stroke="#132e65" stroke-width="1.5"></path><path d="M368.48 517.8L357.09 675.83" stroke="#132e65" stroke-width="1.5"></path><path d="M368.48 517.8L545.08 515.15" stroke="#132e65" stroke-width="1.5"></path><path d="M357.09 675.83L357.09 675.83" stroke="#132e65" stroke-width="1.5"></path><path d="M357.09 675.83L529.52 642.93" stroke="#132e65" stroke-width="1.5"></path><path d="M357.09 675.83L256.81 488.58" stroke="#132e65" stroke-width="1.5"></path><path d="M521.13 370.35L521.13 370.35" stroke="#132e65" stroke-width="1.5"></path><path d="M521.13 370.35L650.14 346.81" stroke="#132e65" stroke-width="1.5"></path><path d="M521.13 370.35L545.08 515.15" stroke="#132e65" stroke-width="1.5"></path><path d="M545.08 515.15L545.08 515.15" stroke="#132e65" stroke-width="1.5"></path><path d="M545.08 515.15L529.52 642.93" stroke="#132e65" stroke-width="1.5"></path><path d="M545.08 515.15L689.96 489.51" stroke="#132e65" stroke-width="1.5"></path><path d="M545.08 515.15L650.14 346.81" stroke="#132e65" stroke-width="1.5"></path><path d="M545.08 515.15L651.72 691.98" stroke="#132e65" stroke-width="1.5"></path><path d="M529.52 642.93L529.52 642.93" stroke="#132e65" stroke-width="1.5"></path><path d="M529.52 642.93L651.72 691.98" stroke="#132e65" stroke-width="1.5"></path><path d="M638.46 259.02L638.46 259.02" stroke="#132e65" stroke-width="1.5"></path><path d="M638.46 259.02L650.14 346.81" stroke="#132e65" stroke-width="1.5"></path><path d="M638.46 259.02L521.13 370.35" stroke="#132e65" stroke-width="1.5"></path><path d="M638.46 259.02L853.15 346.89" stroke="#132e65" stroke-width="1.5"></path><path d="M638.46 259.02L689.96 489.51" stroke="#132e65" stroke-width="1.5"></path><path d="M650.14 346.81L650.14 346.81" stroke="#132e65" stroke-width="1.5"></path><path d="M650.14 346.81L689.96 489.51" stroke="#132e65" stroke-width="1.5"></path><path d="M689.96 489.51L689.96 489.51" stroke="#132e65" stroke-width="1.5"></path><path d="M689.96 489.51L805.81 561.77" stroke="#132e65" stroke-width="1.5"></path><path d="M689.96 489.51L651.72 691.98" stroke="#132e65" stroke-width="1.5"></path><path d="M651.72 691.98L651.72 691.98" stroke="#132e65" stroke-width="1.5"></path><path d="M651.72 691.98L835.1 684.5" stroke="#132e65" stroke-width="1.5"></path><path d="M651.72 691.98L805.81 561.77" stroke="#132e65" stroke-width="1.5"></path><path d="M853.15 346.89L853.15 346.89" stroke="#132e65" stroke-width="1.5"></path><path d="M853.15 346.89L972.38 375.68" stroke="#132e65" stroke-width="1.5"></path><path d="M853.15 346.89L988.11 251.65" stroke="#132e65" stroke-width="1.5"></path><path d="M853.15 346.89L650.14 346.81" stroke="#132e65" stroke-width="1.5"></path><path d="M853.15 346.89L1007.45 491.62" stroke="#132e65" stroke-width="1.5"></path><path d="M853.15 346.89L689.96 489.51" stroke="#132e65" stroke-width="1.5"></path><path d="M853.15 346.89L805.81 561.77" stroke="#132e65" stroke-width="1.5"></path><path d="M805.81 561.77L805.81 561.77" stroke="#132e65" stroke-width="1.5"></path><path d="M805.81 561.77L835.1 684.5" stroke="#132e65" stroke-width="1.5"></path><path d="M805.81 561.77L977.81 664.22" stroke="#132e65" stroke-width="1.5"></path><path d="M835.1 684.5L835.1 684.5" stroke="#132e65" stroke-width="1.5"></path><path d="M835.1 684.5L977.81 664.22" stroke="#132e65" stroke-width="1.5"></path><path d="M979.2 -77.73L979.2 -77.73" stroke="#132e65" stroke-width="1.5"></path><path d="M979.2 -77.73L1133.27 -61.88" stroke="#132e65" stroke-width="1.5"></path><path d="M979.2 -77.73L1093.24 56.81" stroke="#132e65" stroke-width="1.5"></path><path d="M979.2 -77.73L941.15 101.12" stroke="#132e65" stroke-width="1.5"></path><path d="M941.15 101.12L941.15 101.12" stroke="#132e65" stroke-width="1.5"></path><path d="M941.15 101.12L988.11 251.65" stroke="#132e65" stroke-width="1.5"></path><path d="M941.15 101.12L1093.24 56.81" stroke="#132e65" stroke-width="1.5"></path><path d="M988.11 251.65L988.11 251.65" stroke="#132e65" stroke-width="1.5"></path><path d="M988.11 251.65L972.38 375.68" stroke="#132e65" stroke-width="1.5"></path><path d="M988.11 251.65L1150.57 260.65" stroke="#132e65" stroke-width="1.5"></path><path d="M988.11 251.65L1115.7 371.08" stroke="#132e65" stroke-width="1.5"></path><path d="M972.38 375.68L972.38 375.68" stroke="#132e65" stroke-width="1.5"></path><path d="M972.38 375.68L1007.45 491.62" stroke="#132e65" stroke-width="1.5"></path><path d="M972.38 375.68L1115.7 371.08" stroke="#132e65" stroke-width="1.5"></path><path d="M972.38 375.68L1150.57 260.65" stroke="#132e65" stroke-width="1.5"></path><path d="M1007.45 491.62L1007.45 491.62" stroke="#132e65" stroke-width="1.5"></path><path d="M977.81 664.22L977.81 664.22" stroke="#132e65" stroke-width="1.5"></path><path d="M977.81 664.22L1007.45 491.62" stroke="#132e65" stroke-width="1.5"></path><path d="M1133.27 -61.88L1133.27 -61.88" stroke="#132e65" stroke-width="1.5"></path><path d="M1133.27 -61.88L1093.24 56.81" stroke="#132e65" stroke-width="1.5"></path><path d="M1133.27 -61.88L1276.96 -111.31" stroke="#132e65" stroke-width="1.5"></path><path d="M1133.27 -61.88L1275.77 83.91" stroke="#132e65" stroke-width="1.5"></path><path d="M1133.27 -61.88L941.15 101.12" stroke="#132e65" stroke-width="1.5"></path><path d="M1093.24 56.81L1093.24 56.81" stroke="#132e65" stroke-width="1.5"></path><path d="M1093.24 56.81L1275.77 83.91" stroke="#132e65" stroke-width="1.5"></path><path d="M1093.24 56.81L1150.57 260.65" stroke="#132e65" stroke-width="1.5"></path><path d="M1150.57 260.65L1150.57 260.65" stroke="#132e65" stroke-width="1.5"></path><path d="M1150.57 260.65L1244.09 208.41" stroke="#132e65" stroke-width="1.5"></path><path d="M1150.57 260.65L1115.7 371.08" stroke="#132e65" stroke-width="1.5"></path><path d="M1150.57 260.65L1240.74 360.86" stroke="#132e65" stroke-width="1.5"></path><path d="M1115.7 371.08L1115.7 371.08" stroke="#132e65" stroke-width="1.5"></path><path d="M1115.7 371.08L1240.74 360.86" stroke="#132e65" stroke-width="1.5"></path><path d="M1115.7 371.08L1007.45 491.62" stroke="#132e65" stroke-width="1.5"></path><path d="M1115.7 371.08L1161.56 531.34" stroke="#132e65" stroke-width="1.5"></path><path d="M1161.56 531.34L1161.56 531.34" stroke="#132e65" stroke-width="1.5"></path><path d="M1161.56 531.34L1157.3 663.42" stroke="#132e65" stroke-width="1.5"></path><path d="M1161.56 531.34L1262.62 645.29" stroke="#132e65" stroke-width="1.5"></path><path d="M1161.56 531.34L1007.45 491.62" stroke="#132e65" stroke-width="1.5"></path><path d="M1161.56 531.34L1240.74 360.86" stroke="#132e65" stroke-width="1.5"></path><path d="M1157.3 663.42L1157.3 663.42" stroke="#132e65" stroke-width="1.5"></path><path d="M1157.3 663.42L1262.62 645.29" stroke="#132e65" stroke-width="1.5"></path><path d="M1276.96 -111.31L1276.96 -111.31" stroke="#132e65" stroke-width="1.5"></path><path d="M1276.96 -111.31L1422.11 -56.04" stroke="#132e65" stroke-width="1.5"></path><path d="M1276.96 -111.31L1275.77 83.91" stroke="#132e65" stroke-width="1.5"></path><path d="M1276.96 -111.31L1430.99 82.36" stroke="#132e65" stroke-width="1.5"></path><path d="M1276.96 -111.31L1093.24 56.81" stroke="#132e65" stroke-width="1.5"></path><path d="M1275.77 83.91L1275.77 83.91" stroke="#132e65" stroke-width="1.5"></path><path d="M1275.77 83.91L1244.09 208.41" stroke="#132e65" stroke-width="1.5"></path><path d="M1275.77 83.91L1430.99 82.36" stroke="#132e65" stroke-width="1.5"></path><path d="M1244.09 208.41L1244.09 208.41" stroke="#132e65" stroke-width="1.5"></path><path d="M1244.09 208.41L1240.74 360.86" stroke="#132e65" stroke-width="1.5"></path><path d="M1244.09 208.41L1115.7 371.08" stroke="#132e65" stroke-width="1.5"></path><path d="M1244.09 208.41L1093.24 56.81" stroke="#132e65" stroke-width="1.5"></path><path d="M1240.74 360.86L1240.74 360.86" stroke="#132e65" stroke-width="1.5"></path><path d="M1262.62 645.29L1262.62 645.29" stroke="#132e65" stroke-width="1.5"></path><path d="M1262.62 645.29L1405.97 695.27" stroke="#132e65" stroke-width="1.5"></path><path d="M1422.11 -56.04L1422.11 -56.04" stroke="#132e65" stroke-width="1.5"></path><path d="M1422.11 -56.04L1430.99 82.36" stroke="#132e65" stroke-width="1.5"></path><path d="M1422.11 -56.04L1577.65 -110.55" stroke="#132e65" stroke-width="1.5"></path><path d="M1422.11 -56.04L1549.27 95.63" stroke="#132e65" stroke-width="1.5"></path><path d="M1422.11 -56.04L1275.77 83.91" stroke="#132e65" stroke-width="1.5"></path><path d="M1422.11 -56.04L1133.27 -61.88" stroke="#132e65" stroke-width="1.5"></path><path d="M1430.99 82.36L1430.99 82.36" stroke="#132e65" stroke-width="1.5"></path><path d="M1430.99 82.36L1549.27 95.63" stroke="#132e65" stroke-width="1.5"></path><path d="M1439.11 359.22L1439.11 359.22" stroke="#132e65" stroke-width="1.5"></path><path d="M1439.11 359.22L1548.23 411.07" stroke="#132e65" stroke-width="1.5"></path><path d="M1439.11 359.22L1546.13 225.51" stroke="#132e65" stroke-width="1.5"></path><path d="M1439.11 359.22L1396.55 534.6" stroke="#132e65" stroke-width="1.5"></path><path d="M1439.11 359.22L1240.74 360.86" stroke="#132e65" stroke-width="1.5"></path><path d="M1439.11 359.22L1584.08 535.46" stroke="#132e65" stroke-width="1.5"></path><path d="M1439.11 359.22L1244.09 208.41" stroke="#132e65" stroke-width="1.5"></path><path d="M1396.55 534.6L1396.55 534.6" stroke="#132e65" stroke-width="1.5"></path><path d="M1396.55 534.6L1405.97 695.27" stroke="#132e65" stroke-width="1.5"></path><path d="M1396.55 534.6L1262.62 645.29" stroke="#132e65" stroke-width="1.5"></path><path d="M1405.97 695.27L1405.97 695.27" stroke="#132e65" stroke-width="1.5"></path><path d="M1577.65 -110.55L1577.65 -110.55" stroke="#132e65" stroke-width="1.5"></path><path d="M1577.65 -110.55L1549.27 95.63" stroke="#132e65" stroke-width="1.5"></path><path d="M1549.27 95.63L1549.27 95.63" stroke="#132e65" stroke-width="1.5"></path><path d="M1549.27 95.63L1546.13 225.51" stroke="#132e65" stroke-width="1.5"></path><path d="M1546.13 225.51L1546.13 225.51" stroke="#132e65" stroke-width="1.5"></path><path d="M1546.13 225.51L1430.99 82.36" stroke="#132e65" stroke-width="1.5"></path><path d="M1546.13 225.51L1548.23 411.07" stroke="#132e65" stroke-width="1.5"></path><path d="M1548.23 411.07L1548.23 411.07" stroke="#132e65" stroke-width="1.5"></path><path d="M1584.08 535.46L1584.08 535.46" stroke="#132e65" stroke-width="1.5"></path><path d="M1584.08 535.46L1548.23 411.07" stroke="#132e65" stroke-width="1.5"></path><path d="M1584.08 535.46L1396.55 534.6" stroke="#132e65" stroke-width="1.5"></path><path d="M1584.08 535.46L1405.97 695.27" stroke="#132e65" stroke-width="1.5"></path><path d="M1584.08 535.46L1546.13 225.51" stroke="#132e65" stroke-width="1.5"></path><path d="M1584.08 535.46L1262.62 645.29" stroke="#132e65" stroke-width="1.5"></path><circle r="5" cx="-81.83" cy="530.74" fill="#132e65"></circle><circle r="5" cx="-68.2" cy="703.05" fill="#132e65"></circle><circle r="5" cx="68.19" cy="369.82" fill="#132e65"></circle><circle r="5" cx="64.04" cy="510.11" fill="#132e65"></circle><circle r="5" cx="75.3" cy="693.01" fill="#132e65"></circle><circle r="5" cx="190.32" cy="371.73" fill="#132e65"></circle><circle r="5" cx="256.81" cy="488.58" fill="#132e65"></circle><circle r="5" cx="200.43" cy="694.97" fill="#132e65"></circle><circle r="5" cx="354.99" cy="390.61" fill="#132e65"></circle><circle r="5" cx="368.48" cy="517.8" fill="#132e65"></circle><circle r="5" cx="357.09" cy="675.83" fill="#132e65"></circle><circle r="5" cx="521.13" cy="370.35" fill="#132e65"></circle><circle r="5" cx="545.08" cy="515.15" fill="#132e65"></circle><circle r="5" cx="529.52" cy="642.93" fill="#132e65"></circle><circle r="5" cx="638.46" cy="259.02" fill="#132e65"></circle><circle r="5" cx="650.14" cy="346.81" fill="#132e65"></circle><circle r="5" cx="689.96" cy="489.51" fill="#132e65"></circle><circle r="5" cx="651.72" cy="691.98" fill="#132e65"></circle><circle r="5" cx="853.15" cy="346.89" fill="#132e65"></circle><circle r="5" cx="805.81" cy="561.77" fill="#132e65"></circle><circle r="5" cx="835.1" cy="684.5" fill="#132e65"></circle><circle r="5" cx="979.2" cy="-77.73" fill="#132e65"></circle><circle r="5" cx="941.15" cy="101.12" fill="#132e65"></circle><circle r="5" cx="988.11" cy="251.65" fill="#132e65"></circle><circle r="5" cx="972.38" cy="375.68" fill="#132e65"></circle><circle r="5" cx="1007.45" cy="491.62" fill="#132e65"></circle><circle r="5" cx="977.81" cy="664.22" fill="#132e65"></circle><circle r="5" cx="1133.27" cy="-61.88" fill="#132e65"></circle><circle r="5" cx="1093.24" cy="56.81" fill="#132e65"></circle><circle r="5" cx="1150.57" cy="260.65" fill="#132e65"></circle><circle r="5" cx="1115.7" cy="371.08" fill="#132e65"></circle><circle r="5" cx="1161.56" cy="531.34" fill="#132e65"></circle><circle r="5" cx="1157.3" cy="663.42" fill="#132e65"></circle><circle r="5" cx="1276.96" cy="-111.31" fill="#132e65"></circle><circle r="5" cx="1275.77" cy="83.91" fill="#132e65"></circle><circle r="5" cx="1244.09" cy="208.41" fill="#132e65"></circle><circle r="5" cx="1240.74" cy="360.86" fill="#132e65"></circle><circle r="5" cx="1262.62" cy="645.29" fill="#132e65"></circle><circle r="5" cx="1422.11" cy="-56.04" fill="#132e65"></circle><circle r="5" cx="1430.99" cy="82.36" fill="#132e65"></circle><circle r="5" cx="1439.11" cy="359.22" fill="#132e65"></circle><circle r="5" cx="1396.55" cy="534.6" fill="#132e65"></circle><circle r="5" cx="1405.97" cy="695.27" fill="#132e65"></circle><circle r="5" cx="1577.65" cy="-110.55" fill="#132e65"></circle><circle r="5" cx="1549.27" cy="95.63" fill="#132e65"></circle><circle r="5" cx="1546.13" cy="225.51" fill="#132e65"></circle><circle r="5" cx="1548.23" cy="411.07" fill="#132e65"></circle><circle r="5" cx="1584.08" cy="535.46" fill="#132e65"></circle><path d="M202.76 510.48L202.76 510.48" stroke="hsl(228.5, 77.2%, 51.5%)" stroke-width="1.5"></path><path d="M202.76 510.48L202.82 639.8" stroke="hsl(228.5, 77.2%, 51.5%)" stroke-width="1.5"></path><path d="M202.76 510.48L69.54 536.43" stroke="hsl(228.5, 77.2%, 51.5%)" stroke-width="1.5"></path><path d="M202.76 510.48L369.6 525.83" stroke="hsl(228.5, 77.2%, 51.5%)" stroke-width="1.5"></path><path d="M202.76 510.48L63.33 697.03" stroke="hsl(228.5, 77.2%, 51.5%)" stroke-width="1.5"></path><path d="M202.76 510.48L341.41 703" stroke="hsl(228.5, 77.2%, 51.5%)" stroke-width="1.5"></path><path d="M202.76 510.48L-39.03 657.99" stroke="hsl(228.5, 77.2%, 51.5%)" stroke-width="1.5"></path><path d="M812.2 350.14L812.2 350.14" stroke="hsl(228.5, 77.2%, 51.5%)" stroke-width="1.5"></path><path d="M812.2 350.14L695.95 383.95" stroke="hsl(228.5, 77.2%, 51.5%)" stroke-width="1.5"></path><path d="M812.2 350.14L821.95 488.82" stroke="hsl(228.5, 77.2%, 51.5%)" stroke-width="1.5"></path><path d="M812.2 350.14L981.74 373.51" stroke="hsl(228.5, 77.2%, 51.5%)" stroke-width="1.5"></path><path d="M812.2 350.14L639.86 519.73" stroke="hsl(228.5, 77.2%, 51.5%)" stroke-width="1.5"></path><path d="M812.2 350.14L983.28 530.06" stroke="hsl(228.5, 77.2%, 51.5%)" stroke-width="1.5"></path><path d="M982.46 643.35L982.46 643.35" stroke="hsl(228.5, 77.2%, 51.5%)" stroke-width="1.5"></path><path d="M982.46 643.35L983.28 530.06" stroke="hsl(228.5, 77.2%, 51.5%)" stroke-width="1.5"></path><path d="M982.46 643.35L849.35 689.02" stroke="hsl(228.5, 77.2%, 51.5%)" stroke-width="1.5"></path><path d="M982.46 643.35L1114.37 697.77" stroke="hsl(228.5, 77.2%, 51.5%)" stroke-width="1.5"></path><path d="M982.46 643.35L1129.22 560.65" stroke="hsl(228.5, 77.2%, 51.5%)" stroke-width="1.5"></path><path d="M982.46 643.35L821.95 488.82" stroke="hsl(228.5, 77.2%, 51.5%)" stroke-width="1.5"></path><path d="M982.46 643.35L981.74 373.51" stroke="hsl(228.5, 77.2%, 51.5%)" stroke-width="1.5"></path><path d="M1090.74 341.06L1090.74 341.06" stroke="hsl(228.5, 77.2%, 51.5%)" stroke-width="1.5"></path><path d="M1090.74 341.06L981.74 373.51" stroke="hsl(228.5, 77.2%, 51.5%)" stroke-width="1.5"></path><path d="M1090.74 341.06L1143.81 216.05" stroke="hsl(228.5, 77.2%, 51.5%)" stroke-width="1.5"></path><path d="M1090.74 341.06L1283.03 373.93" stroke="hsl(228.5, 77.2%, 51.5%)" stroke-width="1.5"></path><path d="M1310.84 250.14L1310.84 250.14" stroke="hsl(228.5, 77.2%, 51.5%)" stroke-width="1.5"></path><path d="M1310.84 250.14L1389.17 214.72" stroke="hsl(228.5, 77.2%, 51.5%)" stroke-width="1.5"></path><path d="M1310.84 250.14L1283.03 373.93" stroke="hsl(228.5, 77.2%, 51.5%)" stroke-width="1.5"></path><path d="M1310.84 250.14L1143.81 216.05" stroke="hsl(228.5, 77.2%, 51.5%)" stroke-width="1.5"></path><path d="M1295.37 488.24L1295.37 488.24" stroke="hsl(228.5, 77.2%, 51.5%)" stroke-width="1.5"></path><path d="M1295.37 488.24L1283.03 373.93" stroke="hsl(228.5, 77.2%, 51.5%)" stroke-width="1.5"></path><path d="M1295.37 488.24L1434.27 498.39" stroke="hsl(228.5, 77.2%, 51.5%)" stroke-width="1.5"></path><path d="M1454.75 377.15L1454.75 377.15" stroke="hsl(228.5, 77.2%, 51.5%)" stroke-width="1.5"></path><path d="M1454.75 377.15L1434.27 498.39" stroke="hsl(228.5, 77.2%, 51.5%)" stroke-width="1.5"></path><path d="M1454.75 377.15L1591.75 376.84" stroke="hsl(228.5, 77.2%, 51.5%)" stroke-width="1.5"></path><path d="M1454.75 377.15L1546.75 248.17" stroke="hsl(228.5, 77.2%, 51.5%)" stroke-width="1.5"></path><path d="M1589.64 693.17L1589.64 693.17" stroke="hsl(228.5, 77.2%, 51.5%)" stroke-width="1.5"></path><path d="M1589.64 693.17L1410.74 653.68" stroke="hsl(228.5, 77.2%, 51.5%)" stroke-width="1.5"></path><path d="M1589.64 693.17L1434.27 498.39" stroke="hsl(228.5, 77.2%, 51.5%)" stroke-width="1.5"></path><path d="M1589.64 693.17L1591.75 376.84" stroke="hsl(228.5, 77.2%, 51.5%)" stroke-width="1.5"></path><path d="M1589.64 693.17L1260.26 674.87" stroke="hsl(228.5, 77.2%, 51.5%)" stroke-width="1.5"></path><path d="M-93.58 489.95L-93.58 489.95" stroke="hsl(228.5, 77.2%, 51.5%)" stroke-width="1.5"></path><path d="M-93.58 489.95L69.54 536.43" stroke="hsl(228.5, 77.2%, 51.5%)" stroke-width="1.5"></path><path d="M-39.03 657.99L-39.03 657.99" stroke="hsl(228.5, 77.2%, 51.5%)" stroke-width="1.5"></path><path d="M-39.03 657.99L63.33 697.03" stroke="hsl(228.5, 77.2%, 51.5%)" stroke-width="1.5"></path><path d="M-39.03 657.99L69.54 536.43" stroke="hsl(228.5, 77.2%, 51.5%)" stroke-width="1.5"></path><path d="M-39.03 657.99L-93.58 489.95" stroke="hsl(228.5, 77.2%, 51.5%)" stroke-width="1.5"></path><path d="M-39.03 657.99L202.82 639.8" stroke="hsl(228.5, 77.2%, 51.5%)" stroke-width="1.5"></path><path d="M-39.03 657.99L341.41 703" stroke="hsl(228.5, 77.2%, 51.5%)" stroke-width="1.5"></path><path d="M69.54 536.43L69.54 536.43" stroke="hsl(228.5, 77.2%, 51.5%)" stroke-width="1.5"></path><path d="M69.54 536.43L63.33 697.03" stroke="hsl(228.5, 77.2%, 51.5%)" stroke-width="1.5"></path><path d="M69.54 536.43L202.82 639.8" stroke="hsl(228.5, 77.2%, 51.5%)" stroke-width="1.5"></path><path d="M63.33 697.03L63.33 697.03" stroke="hsl(228.5, 77.2%, 51.5%)" stroke-width="1.5"></path><path d="M63.33 697.03L202.82 639.8" stroke="hsl(228.5, 77.2%, 51.5%)" stroke-width="1.5"></path><path d="M202.82 639.8L202.82 639.8" stroke="hsl(228.5, 77.2%, 51.5%)" stroke-width="1.5"></path><path d="M202.82 639.8L341.41 703" stroke="hsl(228.5, 77.2%, 51.5%)" stroke-width="1.5"></path><path d="M202.82 639.8L369.6 525.83" stroke="hsl(228.5, 77.2%, 51.5%)" stroke-width="1.5"></path><path d="M369.6 525.83L369.6 525.83" stroke="hsl(228.5, 77.2%, 51.5%)" stroke-width="1.5"></path><path d="M369.6 525.83L543.88 507.76" stroke="hsl(228.5, 77.2%, 51.5%)" stroke-width="1.5"></path><path d="M369.6 525.83L341.41 703" stroke="hsl(228.5, 77.2%, 51.5%)" stroke-width="1.5"></path><path d="M369.6 525.83L527.17 697.01" stroke="hsl(228.5, 77.2%, 51.5%)" stroke-width="1.5"></path><path d="M341.41 703L341.41 703" stroke="hsl(228.5, 77.2%, 51.5%)" stroke-width="1.5"></path><path d="M341.41 703L527.17 697.01" stroke="hsl(228.5, 77.2%, 51.5%)" stroke-width="1.5"></path><path d="M543.88 507.76L543.88 507.76" stroke="hsl(228.5, 77.2%, 51.5%)" stroke-width="1.5"></path><path d="M543.88 507.76L639.86 519.73" stroke="hsl(228.5, 77.2%, 51.5%)" stroke-width="1.5"></path><path d="M527.17 697.01L527.17 697.01" stroke="hsl(228.5, 77.2%, 51.5%)" stroke-width="1.5"></path><path d="M527.17 697.01L690.97 668.83" stroke="hsl(228.5, 77.2%, 51.5%)" stroke-width="1.5"></path><path d="M695.95 383.95L695.95 383.95" stroke="hsl(228.5, 77.2%, 51.5%)" stroke-width="1.5"></path><path d="M695.95 383.95L639.86 519.73" stroke="hsl(228.5, 77.2%, 51.5%)" stroke-width="1.5"></path><path d="M695.95 383.95L821.95 488.82" stroke="hsl(228.5, 77.2%, 51.5%)" stroke-width="1.5"></path><path d="M695.95 383.95L543.88 507.76" stroke="hsl(228.5, 77.2%, 51.5%)" stroke-width="1.5"></path><path d="M695.95 383.95L690.97 668.83" stroke="hsl(228.5, 77.2%, 51.5%)" stroke-width="1.5"></path><path d="M639.86 519.73L639.86 519.73" stroke="hsl(228.5, 77.2%, 51.5%)" stroke-width="1.5"></path><path d="M639.86 519.73L690.97 668.83" stroke="hsl(228.5, 77.2%, 51.5%)" stroke-width="1.5"></path><path d="M639.86 519.73L821.95 488.82" stroke="hsl(228.5, 77.2%, 51.5%)" stroke-width="1.5"></path><path d="M639.86 519.73L527.17 697.01" stroke="hsl(228.5, 77.2%, 51.5%)" stroke-width="1.5"></path><path d="M690.97 668.83L690.97 668.83" stroke="hsl(228.5, 77.2%, 51.5%)" stroke-width="1.5"></path><path d="M690.97 668.83L849.35 689.02" stroke="hsl(228.5, 77.2%, 51.5%)" stroke-width="1.5"></path><path d="M821.95 488.82L821.95 488.82" stroke="hsl(228.5, 77.2%, 51.5%)" stroke-width="1.5"></path><path d="M821.95 488.82L983.28 530.06" stroke="hsl(228.5, 77.2%, 51.5%)" stroke-width="1.5"></path><path d="M849.35 689.02L849.35 689.02" stroke="hsl(228.5, 77.2%, 51.5%)" stroke-width="1.5"></path><path d="M849.35 689.02L821.95 488.82" stroke="hsl(228.5, 77.2%, 51.5%)" stroke-width="1.5"></path><path d="M849.35 689.02L983.28 530.06" stroke="hsl(228.5, 77.2%, 51.5%)" stroke-width="1.5"></path><path d="M849.35 689.02L1114.37 697.77" stroke="hsl(228.5, 77.2%, 51.5%)" stroke-width="1.5"></path><path d="M981.74 373.51L981.74 373.51" stroke="hsl(228.5, 77.2%, 51.5%)" stroke-width="1.5"></path><path d="M981.74 373.51L983.28 530.06" stroke="hsl(228.5, 77.2%, 51.5%)" stroke-width="1.5"></path><path d="M981.74 373.51L821.95 488.82" stroke="hsl(228.5, 77.2%, 51.5%)" stroke-width="1.5"></path><path d="M981.74 373.51L1143.81 216.05" stroke="hsl(228.5, 77.2%, 51.5%)" stroke-width="1.5"></path><path d="M983.28 530.06L983.28 530.06" stroke="hsl(228.5, 77.2%, 51.5%)" stroke-width="1.5"></path><path d="M983.28 530.06L1129.22 560.65" stroke="hsl(228.5, 77.2%, 51.5%)" stroke-width="1.5"></path><path d="M1154.9 -45.07L1154.9 -45.07" stroke="hsl(228.5, 77.2%, 51.5%)" stroke-width="1.5"></path><path d="M1154.9 -45.07L1273.71 48.97" stroke="hsl(228.5, 77.2%, 51.5%)" stroke-width="1.5"></path><path d="M1154.9 -45.07L1308.49 -50.53" stroke="hsl(228.5, 77.2%, 51.5%)" stroke-width="1.5"></path><path d="M1154.9 -45.07L1395.97 -69.19" stroke="hsl(228.5, 77.2%, 51.5%)" stroke-width="1.5"></path><path d="M1143.81 216.05L1143.81 216.05" stroke="hsl(228.5, 77.2%, 51.5%)" stroke-width="1.5"></path><path d="M1129.22 560.65L1129.22 560.65" stroke="hsl(228.5, 77.2%, 51.5%)" stroke-width="1.5"></path><path d="M1129.22 560.65L1114.37 697.77" stroke="hsl(228.5, 77.2%, 51.5%)" stroke-width="1.5"></path><path d="M1114.37 697.77L1114.37 697.77" stroke="hsl(228.5, 77.2%, 51.5%)" stroke-width="1.5"></path><path d="M1308.49 -50.53L1308.49 -50.53" stroke="hsl(228.5, 77.2%, 51.5%)" stroke-width="1.5"></path><path d="M1308.49 -50.53L1395.97 -69.19" stroke="hsl(228.5, 77.2%, 51.5%)" stroke-width="1.5"></path><path d="M1308.49 -50.53L1273.71 48.97" stroke="hsl(228.5, 77.2%, 51.5%)" stroke-width="1.5"></path><path d="M1273.71 48.97L1273.71 48.97" stroke="hsl(228.5, 77.2%, 51.5%)" stroke-width="1.5"></path><path d="M1283.03 373.93L1283.03 373.93" stroke="hsl(228.5, 77.2%, 51.5%)" stroke-width="1.5"></path><path d="M1283.03 373.93L1454.75 377.15" stroke="hsl(228.5, 77.2%, 51.5%)" stroke-width="1.5"></path><path d="M1283.03 373.93L1389.17 214.72" stroke="hsl(228.5, 77.2%, 51.5%)" stroke-width="1.5"></path><path d="M1260.26 674.87L1260.26 674.87" stroke="hsl(228.5, 77.2%, 51.5%)" stroke-width="1.5"></path><path d="M1260.26 674.87L1114.37 697.77" stroke="hsl(228.5, 77.2%, 51.5%)" stroke-width="1.5"></path><path d="M1260.26 674.87L1410.74 653.68" stroke="hsl(228.5, 77.2%, 51.5%)" stroke-width="1.5"></path><path d="M1260.26 674.87L1129.22 560.65" stroke="hsl(228.5, 77.2%, 51.5%)" stroke-width="1.5"></path><path d="M1395.97 -69.19L1395.97 -69.19" stroke="hsl(228.5, 77.2%, 51.5%)" stroke-width="1.5"></path><path d="M1395.97 -69.19L1552.96 -39.32" stroke="hsl(228.5, 77.2%, 51.5%)" stroke-width="1.5"></path><path d="M1417.54 101.15L1417.54 101.15" stroke="hsl(228.5, 77.2%, 51.5%)" stroke-width="1.5"></path><path d="M1417.54 101.15L1389.17 214.72" stroke="hsl(228.5, 77.2%, 51.5%)" stroke-width="1.5"></path><path d="M1417.54 101.15L1273.71 48.97" stroke="hsl(228.5, 77.2%, 51.5%)" stroke-width="1.5"></path><path d="M1417.54 101.15L1569.97 84.63" stroke="hsl(228.5, 77.2%, 51.5%)" stroke-width="1.5"></path><path d="M1417.54 101.15L1395.97 -69.19" stroke="hsl(228.5, 77.2%, 51.5%)" stroke-width="1.5"></path><path d="M1417.54 101.15L1310.84 250.14" stroke="hsl(228.5, 77.2%, 51.5%)" stroke-width="1.5"></path><path d="M1389.17 214.72L1389.17 214.72" stroke="hsl(228.5, 77.2%, 51.5%)" stroke-width="1.5"></path><path d="M1434.27 498.39L1434.27 498.39" stroke="hsl(228.5, 77.2%, 51.5%)" stroke-width="1.5"></path><path d="M1434.27 498.39L1410.74 653.68" stroke="hsl(228.5, 77.2%, 51.5%)" stroke-width="1.5"></path><path d="M1434.27 498.39L1283.03 373.93" stroke="hsl(228.5, 77.2%, 51.5%)" stroke-width="1.5"></path><path d="M1410.74 653.68L1410.74 653.68" stroke="hsl(228.5, 77.2%, 51.5%)" stroke-width="1.5"></path><path d="M1410.74 653.68L1295.37 488.24" stroke="hsl(228.5, 77.2%, 51.5%)" stroke-width="1.5"></path><path d="M1552.96 -39.32L1552.96 -39.32" stroke="hsl(228.5, 77.2%, 51.5%)" stroke-width="1.5"></path><path d="M1552.96 -39.32L1569.97 84.63" stroke="hsl(228.5, 77.2%, 51.5%)" stroke-width="1.5"></path><path d="M1569.97 84.63L1569.97 84.63" stroke="hsl(228.5, 77.2%, 51.5%)" stroke-width="1.5"></path><path d="M1569.97 84.63L1546.75 248.17" stroke="hsl(228.5, 77.2%, 51.5%)" stroke-width="1.5"></path><path d="M1546.75 248.17L1546.75 248.17" stroke="hsl(228.5, 77.2%, 51.5%)" stroke-width="1.5"></path><path d="M1546.75 248.17L1591.75 376.84" stroke="hsl(228.5, 77.2%, 51.5%)" stroke-width="1.5"></path><path d="M1546.75 248.17L1389.17 214.72" stroke="hsl(228.5, 77.2%, 51.5%)" stroke-width="1.5"></path><path d="M1591.75 376.84L1591.75 376.84" stroke="hsl(228.5, 77.2%, 51.5%)" stroke-width="1.5"></path><path d="M1591.75 376.84L1434.27 498.39" stroke="hsl(228.5, 77.2%, 51.5%)" stroke-width="1.5"></path><path d="M1591.75 376.84L1389.17 214.72" stroke="hsl(228.5, 77.2%, 51.5%)" stroke-width="1.5"></path><path d="M1591.75 376.84L1569.97 84.63" stroke="hsl(228.5, 77.2%, 51.5%)" stroke-width="1.5"></path><path d="M1591.75 376.84L1310.84 250.14" stroke="hsl(228.5, 77.2%, 51.5%)" stroke-width="1.5"></path><circle r="25" cx="202.76" cy="510.48" fill="url(&quot;#SvgjsRadialGradient3581&quot;)"></circle><circle r="25" cx="812.2" cy="350.14" fill="url(&quot;#SvgjsRadialGradient3581&quot;)"></circle><circle r="25" cx="982.46" cy="643.35" fill="url(&quot;#SvgjsRadialGradient3581&quot;)"></circle><circle r="25" cx="1090.74" cy="341.06" fill="url(&quot;#SvgjsRadialGradient3581&quot;)"></circle><circle r="25" cx="1310.84" cy="250.14" fill="url(&quot;#SvgjsRadialGradient3581&quot;)"></circle><circle r="25" cx="1295.37" cy="488.24" fill="url(&quot;#SvgjsRadialGradient3581&quot;)"></circle><circle r="25" cx="1454.75" cy="377.15" fill="url(&quot;#SvgjsRadialGradient3581&quot;)"></circle><circle r="25" cx="1589.64" cy="693.17" fill="url(&quot;#SvgjsRadialGradient3581&quot;)"></circle><circle r="5" cx="-93.58" cy="489.95" fill="#8b9ad9"></circle><circle r="5" cx="-39.03" cy="657.99" fill="#8b9ad9"></circle><circle r="5" cx="69.54" cy="536.43" fill="#8b9ad9"></circle><circle r="5" cx="63.33" cy="697.03" fill="#8b9ad9"></circle><circle r="5" cx="202.82" cy="639.8" fill="#8b9ad9"></circle><circle r="5" cx="369.6" cy="525.83" fill="#8b9ad9"></circle><circle r="5" cx="341.41" cy="703" fill="#8b9ad9"></circle><circle r="5" cx="543.88" cy="507.76" fill="#8b9ad9"></circle><circle r="5" cx="527.17" cy="697.01" fill="#8b9ad9"></circle><circle r="5" cx="695.95" cy="383.95" fill="#8b9ad9"></circle><circle r="5" cx="639.86" cy="519.73" fill="#8b9ad9"></circle><circle r="5" cx="690.97" cy="668.83" fill="#8b9ad9"></circle><circle r="5" cx="821.95" cy="488.82" fill="#8b9ad9"></circle><circle r="5" cx="849.35" cy="689.02" fill="#8b9ad9"></circle><circle r="5" cx="981.74" cy="373.51" fill="#8b9ad9"></circle><circle r="5" cx="983.28" cy="530.06" fill="#8b9ad9"></circle><circle r="5" cx="1154.9" cy="-45.07" fill="#8b9ad9"></circle><circle r="5" cx="1143.81" cy="216.05" fill="#8b9ad9"></circle><circle r="5" cx="1129.22" cy="560.65" fill="#8b9ad9"></circle><circle r="5" cx="1114.37" cy="697.77" fill="#8b9ad9"></circle><circle r="5" cx="1308.49" cy="-50.53" fill="#8b9ad9"></circle><circle r="5" cx="1273.71" cy="48.97" fill="#8b9ad9"></circle><circle r="5" cx="1283.03" cy="373.93" fill="#8b9ad9"></circle><circle r="5" cx="1260.26" cy="674.87" fill="#8b9ad9"></circle><circle r="5" cx="1395.97" cy="-69.19" fill="#8b9ad9"></circle><circle r="5" cx="1417.54" cy="101.15" fill="#8b9ad9"></circle><circle r="5" cx="1389.17" cy="214.72" fill="#8b9ad9"></circle><circle r="5" cx="1434.27" cy="498.39" fill="#8b9ad9"></circle><circle r="5" cx="1410.74" cy="653.68" fill="#8b9ad9"></circle><circle r="5" cx="1552.96" cy="-39.32" fill="#8b9ad9"></circle><circle r="5" cx="1569.97" cy="84.63" fill="#8b9ad9"></circle><circle r="5" cx="1546.75" cy="248.17" fill="#8b9ad9"></circle><circle r="5" cx="1591.75" cy="376.84" fill="#8b9ad9"></circle></g><defs><mask id="SvgjsMask3579"><rect width="1440" height="580" fill="#ffffff"></rect></mask><linearGradient x1="14.93%" y1="-37.07%" x2="85.07%" y2="137.07%" gradientUnits="userSpaceOnUse" id="SvgjsLinearGradient3580"><stop stop-color="#0e2a47" offset="0"></stop><stop stop-color="rgba(154, 230, 204, 1)" offset="0.78"></stop><stop stop-color="rgba(95, 218, 189, 1)" offset="1"></stop></linearGradient><radialGradient id="SvgjsRadialGradient3581"><stop stop-color="#ffffff" offset="0.1"></stop><stop stop-color="#1735b3" offset="0.2"></stop><stop stop-color="rgba(23, 53, 179, 0)" offset="1"></stop></radialGradient></defs></svg>