<svg xmlns="http://www.w3.org/2000/svg" version="1.1" xmlns:xlink="http://www.w3.org/1999/xlink" xmlns:svgjs="http://svgjs.dev/svgjs" width="1440" height="560" preserveAspectRatio="none" viewBox="0 0 1440 560"><g mask="url(&quot;#SvgjsMask1368&quot;)" fill="none"><rect width="1440" height="560" x="0" y="0" fill="url(&quot;#SvgjsLinearGradient1369&quot;)"></rect><path d="M-91.72 383.83L-91.72 383.83" stroke="#132e65" stroke-width="1.5"></path><path d="M-91.72 383.83L-72.19 538.81" stroke="#132e65" stroke-width="1.5"></path><path d="M-91.72 383.83L104.35 409.84" stroke="#132e65" stroke-width="1.5"></path><path d="M-91.72 383.83L93.09 531.24" stroke="#132e65" stroke-width="1.5"></path><path d="M-91.72 383.83L-111.82 659.96" stroke="#132e65" stroke-width="1.5"></path><path d="M-72.19 538.81L-72.19 538.81" stroke="#132e65" stroke-width="1.5"></path><path d="M-72.19 538.81L-111.82 659.96" stroke="#132e65" stroke-width="1.5"></path><path d="M-72.19 538.81L93.09 531.24" stroke="#132e65" stroke-width="1.5"></path><path d="M-72.19 538.81L104.35 409.84" stroke="#132e65" stroke-width="1.5"></path><path d="M-111.82 659.96L-111.82 659.96" stroke="#132e65" stroke-width="1.5"></path><path d="M-111.82 659.96L91.5 702.71" stroke="#132e65" stroke-width="1.5"></path><path d="M104.35 409.84L104.35 409.84" stroke="#132e65" stroke-width="1.5"></path><path d="M104.35 409.84L93.09 531.24" stroke="#132e65" stroke-width="1.5"></path><path d="M104.35 409.84L234.07 377.82" stroke="#132e65" stroke-width="1.5"></path><path d="M104.35 409.84L226.18 535.12" stroke="#132e65" stroke-width="1.5"></path><path d="M93.09 531.24L93.09 531.24" stroke="#132e65" stroke-width="1.5"></path><path d="M93.09 531.24L226.18 535.12" stroke="#132e65" stroke-width="1.5"></path><path d="M93.09 531.24L91.5 702.71" stroke="#132e65" stroke-width="1.5"></path><path d="M93.09 531.24L210.57 688.53" stroke="#132e65" stroke-width="1.5"></path><path d="M93.09 531.24L234.07 377.82" stroke="#132e65" stroke-width="1.5"></path><path d="M91.5 702.71L91.5 702.71" stroke="#132e65" stroke-width="1.5"></path><path d="M91.5 702.71L210.57 688.53" stroke="#132e65" stroke-width="1.5"></path><path d="M91.5 702.71L226.18 535.12" stroke="#132e65" stroke-width="1.5"></path><path d="M91.5 702.71L-72.19 538.81" stroke="#132e65" stroke-width="1.5"></path><path d="M234.07 377.82L234.07 377.82" stroke="#132e65" stroke-width="1.5"></path><path d="M234.07 377.82L391.11 388.4" stroke="#132e65" stroke-width="1.5"></path><path d="M226.18 535.12L226.18 535.12" stroke="#132e65" stroke-width="1.5"></path><path d="M226.18 535.12L344.34 546.42" stroke="#132e65" stroke-width="1.5"></path><path d="M210.57 688.53L210.57 688.53" stroke="#132e65" stroke-width="1.5"></path><path d="M210.57 688.53L226.18 535.12" stroke="#132e65" stroke-width="1.5"></path><path d="M210.57 688.53L384.23 694.59" stroke="#132e65" stroke-width="1.5"></path><path d="M210.57 688.53L344.34 546.42" stroke="#132e65" stroke-width="1.5"></path><path d="M391.11 388.4L391.11 388.4" stroke="#132e65" stroke-width="1.5"></path><path d="M391.11 388.4L520.68 366.54" stroke="#132e65" stroke-width="1.5"></path><path d="M391.11 388.4L501.38 497.77" stroke="#132e65" stroke-width="1.5"></path><path d="M391.11 388.4L344.34 546.42" stroke="#132e65" stroke-width="1.5"></path><path d="M344.34 546.42L344.34 546.42" stroke="#132e65" stroke-width="1.5"></path><path d="M344.34 546.42L384.23 694.59" stroke="#132e65" stroke-width="1.5"></path><path d="M384.23 694.59L384.23 694.59" stroke="#132e65" stroke-width="1.5"></path><path d="M384.23 694.59L541.82 640.68" stroke="#132e65" stroke-width="1.5"></path><path d="M520.68 366.54L520.68 366.54" stroke="#132e65" stroke-width="1.5"></path><path d="M520.68 366.54L501.38 497.77" stroke="#132e65" stroke-width="1.5"></path><path d="M520.68 366.54L700.4 380.22" stroke="#132e65" stroke-width="1.5"></path><path d="M520.68 366.54L710.39 516.09" stroke="#132e65" stroke-width="1.5"></path><path d="M501.38 497.77L501.38 497.77" stroke="#132e65" stroke-width="1.5"></path><path d="M501.38 497.77L541.82 640.68" stroke="#132e65" stroke-width="1.5"></path><path d="M501.38 497.77L344.34 546.42" stroke="#132e65" stroke-width="1.5"></path><path d="M501.38 497.77L710.39 516.09" stroke="#132e65" stroke-width="1.5"></path><path d="M541.82 640.68L541.82 640.68" stroke="#132e65" stroke-width="1.5"></path><path d="M541.82 640.68L665.23 655.66" stroke="#132e65" stroke-width="1.5"></path><path d="M541.82 640.68L710.39 516.09" stroke="#132e65" stroke-width="1.5"></path><path d="M541.82 640.68L344.34 546.42" stroke="#132e65" stroke-width="1.5"></path><path d="M541.82 640.68L520.68 366.54" stroke="#132e65" stroke-width="1.5"></path><path d="M700.4 380.22L700.4 380.22" stroke="#132e65" stroke-width="1.5"></path><path d="M700.4 380.22L710.39 516.09" stroke="#132e65" stroke-width="1.5"></path><path d="M700.4 380.22L850.07 380.28" stroke="#132e65" stroke-width="1.5"></path><path d="M700.4 380.22L788.73 215.59" stroke="#132e65" stroke-width="1.5"></path><path d="M700.4 380.22L501.38 497.77" stroke="#132e65" stroke-width="1.5"></path><path d="M700.4 380.22L665.23 655.66" stroke="#132e65" stroke-width="1.5"></path><path d="M710.39 516.09L710.39 516.09" stroke="#132e65" stroke-width="1.5"></path><path d="M710.39 516.09L665.23 655.66" stroke="#132e65" stroke-width="1.5"></path><path d="M710.39 516.09L850.07 380.28" stroke="#132e65" stroke-width="1.5"></path><path d="M665.23 655.66L665.23 655.66" stroke="#132e65" stroke-width="1.5"></path><path d="M665.23 655.66L856.57 667.06" stroke="#132e65" stroke-width="1.5"></path><path d="M665.23 655.66L501.38 497.77" stroke="#132e65" stroke-width="1.5"></path><path d="M665.23 655.66L938.17 665.95" stroke="#132e65" stroke-width="1.5"></path><path d="M788.73 215.59L788.73 215.59" stroke="#132e65" stroke-width="1.5"></path><path d="M788.73 215.59L850.07 380.28" stroke="#132e65" stroke-width="1.5"></path><path d="M788.73 215.59L972.66 215.63" stroke="#132e65" stroke-width="1.5"></path><path d="M850.07 380.28L850.07 380.28" stroke="#132e65" stroke-width="1.5"></path><path d="M856.57 667.06L856.57 667.06" stroke="#132e65" stroke-width="1.5"></path><path d="M856.57 667.06L938.17 665.95" stroke="#132e65" stroke-width="1.5"></path><path d="M856.57 667.06L710.39 516.09" stroke="#132e65" stroke-width="1.5"></path><path d="M856.57 667.06L1007.04 498.33" stroke="#132e65" stroke-width="1.5"></path><path d="M856.57 667.06L850.07 380.28" stroke="#132e65" stroke-width="1.5"></path><path d="M856.57 667.06L541.82 640.68" stroke="#132e65" stroke-width="1.5"></path><path d="M979.06 76.44L979.06 76.44" stroke="#132e65" stroke-width="1.5"></path><path d="M979.06 76.44L1117.37 79.25" stroke="#132e65" stroke-width="1.5"></path><path d="M979.06 76.44L972.66 215.63" stroke="#132e65" stroke-width="1.5"></path><path d="M979.06 76.44L1123.16 -39.05" stroke="#132e65" stroke-width="1.5"></path><path d="M979.06 76.44L1105.25 217.91" stroke="#132e65" stroke-width="1.5"></path><path d="M972.66 215.63L972.66 215.63" stroke="#132e65" stroke-width="1.5"></path><path d="M972.66 215.63L1105.25 217.91" stroke="#132e65" stroke-width="1.5"></path><path d="M1007.04 498.33L1007.04 498.33" stroke="#132e65" stroke-width="1.5"></path><path d="M1007.04 498.33L1144.69 536.41" stroke="#132e65" stroke-width="1.5"></path><path d="M1007.04 498.33L1139.95 403.02" stroke="#132e65" stroke-width="1.5"></path><path d="M1007.04 498.33L938.17 665.95" stroke="#132e65" stroke-width="1.5"></path><path d="M1007.04 498.33L850.07 380.28" stroke="#132e65" stroke-width="1.5"></path><path d="M938.17 665.95L938.17 665.95" stroke="#132e65" stroke-width="1.5"></path><path d="M938.17 665.95L1144.69 536.41" stroke="#132e65" stroke-width="1.5"></path><path d="M938.17 665.95L710.39 516.09" stroke="#132e65" stroke-width="1.5"></path><path d="M938.17 665.95L850.07 380.28" stroke="#132e65" stroke-width="1.5"></path><path d="M1123.16 -39.05L1123.16 -39.05" stroke="#132e65" stroke-width="1.5"></path><path d="M1123.16 -39.05L1117.37 79.25" stroke="#132e65" stroke-width="1.5"></path><path d="M1123.16 -39.05L1247.02 -87.35" stroke="#132e65" stroke-width="1.5"></path><path d="M1123.16 -39.05L1259.61 39.77" stroke="#132e65" stroke-width="1.5"></path><path d="M1123.16 -39.05L1105.25 217.91" stroke="#132e65" stroke-width="1.5"></path><path d="M1123.16 -39.05L1403.46 -50.63" stroke="#132e65" stroke-width="1.5"></path><path d="M1117.37 79.25L1117.37 79.25" stroke="#132e65" stroke-width="1.5"></path><path d="M1105.25 217.91L1105.25 217.91" stroke="#132e65" stroke-width="1.5"></path><path d="M1105.25 217.91L1117.37 79.25" stroke="#132e65" stroke-width="1.5"></path><path d="M1105.25 217.91L1267.9 233.34" stroke="#132e65" stroke-width="1.5"></path><path d="M1105.25 217.91L1139.95 403.02" stroke="#132e65" stroke-width="1.5"></path><path d="M1139.95 403.02L1139.95 403.02" stroke="#132e65" stroke-width="1.5"></path><path d="M1139.95 403.02L1241.6 377.6" stroke="#132e65" stroke-width="1.5"></path><path d="M1139.95 403.02L1144.69 536.41" stroke="#132e65" stroke-width="1.5"></path><path d="M1139.95 403.02L1255.99 517.7" stroke="#132e65" stroke-width="1.5"></path><path d="M1144.69 536.41L1144.69 536.41" stroke="#132e65" stroke-width="1.5"></path><path d="M1144.69 536.41L1255.99 517.7" stroke="#132e65" stroke-width="1.5"></path><path d="M1247.02 -87.35L1247.02 -87.35" stroke="#132e65" stroke-width="1.5"></path><path d="M1247.02 -87.35L1259.61 39.77" stroke="#132e65" stroke-width="1.5"></path><path d="M1259.61 39.77L1259.61 39.77" stroke="#132e65" stroke-width="1.5"></path><path d="M1259.61 39.77L1117.37 79.25" stroke="#132e65" stroke-width="1.5"></path><path d="M1259.61 39.77L1403.46 -50.63" stroke="#132e65" stroke-width="1.5"></path><path d="M1259.61 39.77L1430.37 101.13" stroke="#132e65" stroke-width="1.5"></path><path d="M1267.9 233.34L1267.9 233.34" stroke="#132e65" stroke-width="1.5"></path><path d="M1267.9 233.34L1241.6 377.6" stroke="#132e65" stroke-width="1.5"></path><path d="M1267.9 233.34L1447.82 228.36" stroke="#132e65" stroke-width="1.5"></path><path d="M1267.9 233.34L1259.61 39.77" stroke="#132e65" stroke-width="1.5"></path><path d="M1267.9 233.34L1433.53 359.35" stroke="#132e65" stroke-width="1.5"></path><path d="M1267.9 233.34L1430.37 101.13" stroke="#132e65" stroke-width="1.5"></path><path d="M1241.6 377.6L1241.6 377.6" stroke="#132e65" stroke-width="1.5"></path><path d="M1241.6 377.6L1255.99 517.7" stroke="#132e65" stroke-width="1.5"></path><path d="M1241.6 377.6L1144.69 536.41" stroke="#132e65" stroke-width="1.5"></path><path d="M1241.6 377.6L1433.53 359.35" stroke="#132e65" stroke-width="1.5"></path><path d="M1255.99 517.7L1255.99 517.7" stroke="#132e65" stroke-width="1.5"></path><path d="M1255.99 517.7L1404.27 551.62" stroke="#132e65" stroke-width="1.5"></path><path d="M1403.46 -50.63L1403.46 -50.63" stroke="#132e65" stroke-width="1.5"></path><path d="M1403.46 -50.63L1430.37 101.13" stroke="#132e65" stroke-width="1.5"></path><path d="M1403.46 -50.63L1247.02 -87.35" stroke="#132e65" stroke-width="1.5"></path><path d="M1403.46 -50.63L1595.38 -103.28" stroke="#132e65" stroke-width="1.5"></path><path d="M1403.46 -50.63L1587.52 99.64" stroke="#132e65" stroke-width="1.5"></path><path d="M1430.37 101.13L1430.37 101.13" stroke="#132e65" stroke-width="1.5"></path><path d="M1430.37 101.13L1447.82 228.36" stroke="#132e65" stroke-width="1.5"></path><path d="M1430.37 101.13L1587.52 99.64" stroke="#132e65" stroke-width="1.5"></path><path d="M1430.37 101.13L1560.9 197.22" stroke="#132e65" stroke-width="1.5"></path><path d="M1447.82 228.36L1447.82 228.36" stroke="#132e65" stroke-width="1.5"></path><path d="M1447.82 228.36L1560.9 197.22" stroke="#132e65" stroke-width="1.5"></path><path d="M1447.82 228.36L1433.53 359.35" stroke="#132e65" stroke-width="1.5"></path><path d="M1433.53 359.35L1433.53 359.35" stroke="#132e65" stroke-width="1.5"></path><path d="M1433.53 359.35L1581.38 362.8" stroke="#132e65" stroke-width="1.5"></path><path d="M1433.53 359.35L1404.27 551.62" stroke="#132e65" stroke-width="1.5"></path><path d="M1404.27 551.62L1404.27 551.62" stroke="#132e65" stroke-width="1.5"></path><path d="M1404.27 551.62L1419.94 642.54" stroke="#132e65" stroke-width="1.5"></path><path d="M1404.27 551.62L1573.66 547.66" stroke="#132e65" stroke-width="1.5"></path><path d="M1404.27 551.62L1609.48 639.6" stroke="#132e65" stroke-width="1.5"></path><path d="M1404.27 551.62L1241.6 377.6" stroke="#132e65" stroke-width="1.5"></path><path d="M1419.94 642.54L1419.94 642.54" stroke="#132e65" stroke-width="1.5"></path><path d="M1419.94 642.54L1573.66 547.66" stroke="#132e65" stroke-width="1.5"></path><path d="M1595.38 -103.28L1595.38 -103.28" stroke="#132e65" stroke-width="1.5"></path><path d="M1595.38 -103.28L1587.52 99.64" stroke="#132e65" stroke-width="1.5"></path><path d="M1595.38 -103.28L1430.37 101.13" stroke="#132e65" stroke-width="1.5"></path><path d="M1595.38 -103.28L1560.9 197.22" stroke="#132e65" stroke-width="1.5"></path><path d="M1595.38 -103.28L1247.02 -87.35" stroke="#132e65" stroke-width="1.5"></path><path d="M1587.52 99.64L1587.52 99.64" stroke="#132e65" stroke-width="1.5"></path><path d="M1587.52 99.64L1560.9 197.22" stroke="#132e65" stroke-width="1.5"></path><path d="M1587.52 99.64L1447.82 228.36" stroke="#132e65" stroke-width="1.5"></path><path d="M1560.9 197.22L1560.9 197.22" stroke="#132e65" stroke-width="1.5"></path><path d="M1560.9 197.22L1581.38 362.8" stroke="#132e65" stroke-width="1.5"></path><path d="M1560.9 197.22L1433.53 359.35" stroke="#132e65" stroke-width="1.5"></path><path d="M1581.38 362.8L1581.38 362.8" stroke="#132e65" stroke-width="1.5"></path><path d="M1581.38 362.8L1573.66 547.66" stroke="#132e65" stroke-width="1.5"></path><path d="M1581.38 362.8L1447.82 228.36" stroke="#132e65" stroke-width="1.5"></path><path d="M1581.38 362.8L1404.27 551.62" stroke="#132e65" stroke-width="1.5"></path><path d="M1581.38 362.8L1587.52 99.64" stroke="#132e65" stroke-width="1.5"></path><path d="M1573.66 547.66L1573.66 547.66" stroke="#132e65" stroke-width="1.5"></path><path d="M1573.66 547.66L1609.48 639.6" stroke="#132e65" stroke-width="1.5"></path><path d="M1573.66 547.66L1433.53 359.35" stroke="#132e65" stroke-width="1.5"></path><path d="M1573.66 547.66L1255.99 517.7" stroke="#132e65" stroke-width="1.5"></path><path d="M1609.48 639.6L1609.48 639.6" stroke="#132e65" stroke-width="1.5"></path><path d="M1609.48 639.6L1419.94 642.54" stroke="#132e65" stroke-width="1.5"></path><circle r="5" cx="-91.72" cy="383.83" fill="#132e65"></circle><circle r="5" cx="-72.19" cy="538.81" fill="#132e65"></circle><circle r="5" cx="-111.82" cy="659.96" fill="#132e65"></circle><circle r="5" cx="104.35" cy="409.84" fill="#132e65"></circle><circle r="5" cx="93.09" cy="531.24" fill="#132e65"></circle><circle r="5" cx="91.5" cy="702.71" fill="#132e65"></circle><circle r="5" cx="234.07" cy="377.82" fill="#132e65"></circle><circle r="5" cx="226.18" cy="535.12" fill="#132e65"></circle><circle r="5" cx="210.57" cy="688.53" fill="#132e65"></circle><circle r="5" cx="391.11" cy="388.4" fill="#132e65"></circle><circle r="5" cx="344.34" cy="546.42" fill="#132e65"></circle><circle r="5" cx="384.23" cy="694.59" fill="#132e65"></circle><circle r="5" cx="520.68" cy="366.54" fill="#132e65"></circle><circle r="5" cx="501.38" cy="497.77" fill="#132e65"></circle><circle r="5" cx="541.82" cy="640.68" fill="#132e65"></circle><circle r="5" cx="700.4" cy="380.22" fill="#132e65"></circle><circle r="5" cx="710.39" cy="516.09" fill="#132e65"></circle><circle r="5" cx="665.23" cy="655.66" fill="#132e65"></circle><circle r="5" cx="788.73" cy="215.59" fill="#132e65"></circle><circle r="5" cx="850.07" cy="380.28" fill="#132e65"></circle><circle r="5" cx="856.57" cy="667.06" fill="#132e65"></circle><circle r="5" cx="979.06" cy="76.44" fill="#132e65"></circle><circle r="5" cx="972.66" cy="215.63" fill="#132e65"></circle><circle r="5" cx="1007.04" cy="498.33" fill="#132e65"></circle><circle r="5" cx="938.17" cy="665.95" fill="#132e65"></circle><circle r="5" cx="1123.16" cy="-39.05" fill="#132e65"></circle><circle r="5" cx="1117.37" cy="79.25" fill="#132e65"></circle><circle r="5" cx="1105.25" cy="217.91" fill="#132e65"></circle><circle r="5" cx="1139.95" cy="403.02" fill="#132e65"></circle><circle r="5" cx="1144.69" cy="536.41" fill="#132e65"></circle><circle r="5" cx="1247.02" cy="-87.35" fill="#132e65"></circle><circle r="5" cx="1259.61" cy="39.77" fill="#132e65"></circle><circle r="5" cx="1267.9" cy="233.34" fill="#132e65"></circle><circle r="5" cx="1241.6" cy="377.6" fill="#132e65"></circle><circle r="5" cx="1255.99" cy="517.7" fill="#132e65"></circle><circle r="5" cx="1403.46" cy="-50.63" fill="#132e65"></circle><circle r="5" cx="1430.37" cy="101.13" fill="#132e65"></circle><circle r="5" cx="1447.82" cy="228.36" fill="#132e65"></circle><circle r="5" cx="1433.53" cy="359.35" fill="#132e65"></circle><circle r="5" cx="1404.27" cy="551.62" fill="#132e65"></circle><circle r="5" cx="1419.94" cy="642.54" fill="#132e65"></circle><circle r="5" cx="1595.38" cy="-103.28" fill="#132e65"></circle><circle r="5" cx="1587.52" cy="99.64" fill="#132e65"></circle><circle r="5" cx="1560.9" cy="197.22" fill="#132e65"></circle><circle r="5" cx="1581.38" cy="362.8" fill="#132e65"></circle><circle r="5" cx="1573.66" cy="547.66" fill="#132e65"></circle><circle r="5" cx="1609.48" cy="639.6" fill="#132e65"></circle><path d="M199.65 551.88L199.65 551.88" stroke="hsl(228.5, 77.2%, 51.5%)" stroke-width="1.5"></path><path d="M199.65 551.88L87.4 539.83" stroke="hsl(228.5, 77.2%, 51.5%)" stroke-width="1.5"></path><path d="M199.65 551.88L84.46 682.99" stroke="hsl(228.5, 77.2%, 51.5%)" stroke-width="1.5"></path><path d="M943.92 535.36L943.92 535.36" stroke="hsl(228.5, 77.2%, 51.5%)" stroke-width="1.5"></path><path d="M943.92 535.36L854.88 521.36" stroke="hsl(228.5, 77.2%, 51.5%)" stroke-width="1.5"></path><path d="M943.92 535.36L1001.02 408.53" stroke="hsl(228.5, 77.2%, 51.5%)" stroke-width="1.5"></path><path d="M943.92 535.36L1005.13 674.66" stroke="hsl(228.5, 77.2%, 51.5%)" stroke-width="1.5"></path><path d="M1119.79 669.62L1119.79 669.62" stroke="hsl(228.5, 77.2%, 51.5%)" stroke-width="1.5"></path><path d="M1119.79 669.62L1005.13 674.66" stroke="hsl(228.5, 77.2%, 51.5%)" stroke-width="1.5"></path><path d="M1119.79 669.62L1270.88 658.57" stroke="hsl(228.5, 77.2%, 51.5%)" stroke-width="1.5"></path><path d="M1119.79 669.62L1108.27 513.36" stroke="hsl(228.5, 77.2%, 51.5%)" stroke-width="1.5"></path><path d="M1119.79 669.62L943.92 535.36" stroke="hsl(228.5, 77.2%, 51.5%)" stroke-width="1.5"></path><path d="M1119.79 669.62L1308.64 495.8" stroke="hsl(228.5, 77.2%, 51.5%)" stroke-width="1.5"></path><path d="M1119.79 669.62L862.26 709.97" stroke="hsl(228.5, 77.2%, 51.5%)" stroke-width="1.5"></path><path d="M1308.02 193.65L1308.02 193.65" stroke="hsl(228.5, 77.2%, 51.5%)" stroke-width="1.5"></path><path d="M1308.02 193.65L1244.59 104.92" stroke="hsl(228.5, 77.2%, 51.5%)" stroke-width="1.5"></path><path d="M1308.02 193.65L1452.6 252.49" stroke="hsl(228.5, 77.2%, 51.5%)" stroke-width="1.5"></path><path d="M1308.02 193.65L1424.8 338.57" stroke="hsl(228.5, 77.2%, 51.5%)" stroke-width="1.5"></path><path d="M1308.02 193.65L1416.91 40.53" stroke="hsl(228.5, 77.2%, 51.5%)" stroke-width="1.5"></path><path d="M1308.02 193.65L1276.81 383.74" stroke="hsl(228.5, 77.2%, 51.5%)" stroke-width="1.5"></path><path d="M1308.02 193.65L1139.3 338.37" stroke="hsl(228.5, 77.2%, 51.5%)" stroke-width="1.5"></path><path d="M1571.64 222.83L1571.64 222.83" stroke="hsl(228.5, 77.2%, 51.5%)" stroke-width="1.5"></path><path d="M1571.64 222.83L1452.6 252.49" stroke="hsl(228.5, 77.2%, 51.5%)" stroke-width="1.5"></path><path d="M1571.64 222.83L1551.29 84.06" stroke="hsl(228.5, 77.2%, 51.5%)" stroke-width="1.5"></path><path d="M1564.03 382L1564.03 382" stroke="hsl(228.5, 77.2%, 51.5%)" stroke-width="1.5"></path><path d="M1564.03 382L1424.8 338.57" stroke="hsl(228.5, 77.2%, 51.5%)" stroke-width="1.5"></path><path d="M1564.03 382L1571.64 222.83" stroke="hsl(228.5, 77.2%, 51.5%)" stroke-width="1.5"></path><path d="M1564.03 382L1452.6 252.49" stroke="hsl(228.5, 77.2%, 51.5%)" stroke-width="1.5"></path><path d="M1564.03 382L1544.32 558.51" stroke="hsl(228.5, 77.2%, 51.5%)" stroke-width="1.5"></path><path d="M1564.03 382L1389.05 558.99" stroke="hsl(228.5, 77.2%, 51.5%)" stroke-width="1.5"></path><path d="M1564.03 382L1308.64 495.8" stroke="hsl(228.5, 77.2%, 51.5%)" stroke-width="1.5"></path><path d="M-78.02 503.2L-78.02 503.2" stroke="hsl(228.5, 77.2%, 51.5%)" stroke-width="1.5"></path><path d="M-78.02 503.2L87.4 539.83" stroke="hsl(228.5, 77.2%, 51.5%)" stroke-width="1.5"></path><path d="M-78.02 503.2L-51.22 677.3" stroke="hsl(228.5, 77.2%, 51.5%)" stroke-width="1.5"></path><path d="M-51.22 677.3L-51.22 677.3" stroke="hsl(228.5, 77.2%, 51.5%)" stroke-width="1.5"></path><path d="M-51.22 677.3L84.46 682.99" stroke="hsl(228.5, 77.2%, 51.5%)" stroke-width="1.5"></path><path d="M-51.22 677.3L87.4 539.83" stroke="hsl(228.5, 77.2%, 51.5%)" stroke-width="1.5"></path><path d="M-51.22 677.3L199.65 551.88" stroke="hsl(228.5, 77.2%, 51.5%)" stroke-width="1.5"></path><path d="M87.4 539.83L87.4 539.83" stroke="hsl(228.5, 77.2%, 51.5%)" stroke-width="1.5"></path><path d="M87.4 539.83L84.46 682.99" stroke="hsl(228.5, 77.2%, 51.5%)" stroke-width="1.5"></path><path d="M84.46 682.99L84.46 682.99" stroke="hsl(228.5, 77.2%, 51.5%)" stroke-width="1.5"></path><path d="M84.46 682.99L-78.02 503.2" stroke="hsl(228.5, 77.2%, 51.5%)" stroke-width="1.5"></path><path d="M395.6 561.72L395.6 561.72" stroke="hsl(228.5, 77.2%, 51.5%)" stroke-width="1.5"></path><path d="M395.6 561.72L513.97 536.42" stroke="hsl(228.5, 77.2%, 51.5%)" stroke-width="1.5"></path><path d="M395.6 561.72L199.65 551.88" stroke="hsl(228.5, 77.2%, 51.5%)" stroke-width="1.5"></path><path d="M395.6 561.72L659.5 675.56" stroke="hsl(228.5, 77.2%, 51.5%)" stroke-width="1.5"></path><path d="M395.6 561.72L683.36 496.01" stroke="hsl(228.5, 77.2%, 51.5%)" stroke-width="1.5"></path><path d="M395.6 561.72L87.4 539.83" stroke="hsl(228.5, 77.2%, 51.5%)" stroke-width="1.5"></path><path d="M395.6 561.72L657.28 377.01" stroke="hsl(228.5, 77.2%, 51.5%)" stroke-width="1.5"></path><path d="M513.97 536.42L513.97 536.42" stroke="hsl(228.5, 77.2%, 51.5%)" stroke-width="1.5"></path><path d="M513.97 536.42L683.36 496.01" stroke="hsl(228.5, 77.2%, 51.5%)" stroke-width="1.5"></path><path d="M513.97 536.42L659.5 675.56" stroke="hsl(228.5, 77.2%, 51.5%)" stroke-width="1.5"></path><path d="M513.97 536.42L657.28 377.01" stroke="hsl(228.5, 77.2%, 51.5%)" stroke-width="1.5"></path><path d="M513.97 536.42L199.65 551.88" stroke="hsl(228.5, 77.2%, 51.5%)" stroke-width="1.5"></path><path d="M657.28 377.01L657.28 377.01" stroke="hsl(228.5, 77.2%, 51.5%)" stroke-width="1.5"></path><path d="M657.28 377.01L683.36 496.01" stroke="hsl(228.5, 77.2%, 51.5%)" stroke-width="1.5"></path><path d="M657.28 377.01L804.85 388.12" stroke="hsl(228.5, 77.2%, 51.5%)" stroke-width="1.5"></path><path d="M657.28 377.01L854.88 521.36" stroke="hsl(228.5, 77.2%, 51.5%)" stroke-width="1.5"></path><path d="M657.28 377.01L659.5 675.56" stroke="hsl(228.5, 77.2%, 51.5%)" stroke-width="1.5"></path><path d="M683.36 496.01L683.36 496.01" stroke="hsl(228.5, 77.2%, 51.5%)" stroke-width="1.5"></path><path d="M683.36 496.01L804.85 388.12" stroke="hsl(228.5, 77.2%, 51.5%)" stroke-width="1.5"></path><path d="M683.36 496.01L854.88 521.36" stroke="hsl(228.5, 77.2%, 51.5%)" stroke-width="1.5"></path><path d="M659.5 675.56L659.5 675.56" stroke="hsl(228.5, 77.2%, 51.5%)" stroke-width="1.5"></path><path d="M659.5 675.56L683.36 496.01" stroke="hsl(228.5, 77.2%, 51.5%)" stroke-width="1.5"></path><path d="M804.85 388.12L804.85 388.12" stroke="hsl(228.5, 77.2%, 51.5%)" stroke-width="1.5"></path><path d="M804.85 388.12L854.88 521.36" stroke="hsl(228.5, 77.2%, 51.5%)" stroke-width="1.5"></path><path d="M804.85 388.12L1001.02 408.53" stroke="hsl(228.5, 77.2%, 51.5%)" stroke-width="1.5"></path><path d="M854.88 521.36L854.88 521.36" stroke="hsl(228.5, 77.2%, 51.5%)" stroke-width="1.5"></path><path d="M854.88 521.36L1001.02 408.53" stroke="hsl(228.5, 77.2%, 51.5%)" stroke-width="1.5"></path><path d="M854.88 521.36L862.26 709.97" stroke="hsl(228.5, 77.2%, 51.5%)" stroke-width="1.5"></path><path d="M862.26 709.97L862.26 709.97" stroke="hsl(228.5, 77.2%, 51.5%)" stroke-width="1.5"></path><path d="M862.26 709.97L1005.13 674.66" stroke="hsl(228.5, 77.2%, 51.5%)" stroke-width="1.5"></path><path d="M1001.02 408.53L1001.02 408.53" stroke="hsl(228.5, 77.2%, 51.5%)" stroke-width="1.5"></path><path d="M1001.02 408.53L1108.27 513.36" stroke="hsl(228.5, 77.2%, 51.5%)" stroke-width="1.5"></path><path d="M1005.13 674.66L1005.13 674.66" stroke="hsl(228.5, 77.2%, 51.5%)" stroke-width="1.5"></path><path d="M1139.3 338.37L1139.3 338.37" stroke="hsl(228.5, 77.2%, 51.5%)" stroke-width="1.5"></path><path d="M1139.3 338.37L1276.81 383.74" stroke="hsl(228.5, 77.2%, 51.5%)" stroke-width="1.5"></path><path d="M1139.3 338.37L1001.02 408.53" stroke="hsl(228.5, 77.2%, 51.5%)" stroke-width="1.5"></path><path d="M1139.3 338.37L1108.27 513.36" stroke="hsl(228.5, 77.2%, 51.5%)" stroke-width="1.5"></path><path d="M1108.27 513.36L1108.27 513.36" stroke="hsl(228.5, 77.2%, 51.5%)" stroke-width="1.5"></path><path d="M1108.27 513.36L943.92 535.36" stroke="hsl(228.5, 77.2%, 51.5%)" stroke-width="1.5"></path><path d="M1241.8 -83.65L1241.8 -83.65" stroke="hsl(228.5, 77.2%, 51.5%)" stroke-width="1.5"></path><path d="M1241.8 -83.65L1244.59 104.92" stroke="hsl(228.5, 77.2%, 51.5%)" stroke-width="1.5"></path><path d="M1241.8 -83.65L1416.91 40.53" stroke="hsl(228.5, 77.2%, 51.5%)" stroke-width="1.5"></path><path d="M1241.8 -83.65L1454.41 -39.24" stroke="hsl(228.5, 77.2%, 51.5%)" stroke-width="1.5"></path><path d="M1241.8 -83.65L1308.02 193.65" stroke="hsl(228.5, 77.2%, 51.5%)" stroke-width="1.5"></path><path d="M1244.59 104.92L1244.59 104.92" stroke="hsl(228.5, 77.2%, 51.5%)" stroke-width="1.5"></path><path d="M1244.59 104.92L1416.91 40.53" stroke="hsl(228.5, 77.2%, 51.5%)" stroke-width="1.5"></path><path d="M1276.81 383.74L1276.81 383.74" stroke="hsl(228.5, 77.2%, 51.5%)" stroke-width="1.5"></path><path d="M1276.81 383.74L1308.64 495.8" stroke="hsl(228.5, 77.2%, 51.5%)" stroke-width="1.5"></path><path d="M1276.81 383.74L1424.8 338.57" stroke="hsl(228.5, 77.2%, 51.5%)" stroke-width="1.5"></path><path d="M1308.64 495.8L1308.64 495.8" stroke="hsl(228.5, 77.2%, 51.5%)" stroke-width="1.5"></path><path d="M1308.64 495.8L1389.05 558.99" stroke="hsl(228.5, 77.2%, 51.5%)" stroke-width="1.5"></path><path d="M1308.64 495.8L1270.88 658.57" stroke="hsl(228.5, 77.2%, 51.5%)" stroke-width="1.5"></path><path d="M1308.64 495.8L1424.8 338.57" stroke="hsl(228.5, 77.2%, 51.5%)" stroke-width="1.5"></path><path d="M1308.64 495.8L1108.27 513.36" stroke="hsl(228.5, 77.2%, 51.5%)" stroke-width="1.5"></path><path d="M1270.88 658.57L1270.88 658.57" stroke="hsl(228.5, 77.2%, 51.5%)" stroke-width="1.5"></path><path d="M1270.88 658.57L1389.05 558.99" stroke="hsl(228.5, 77.2%, 51.5%)" stroke-width="1.5"></path><path d="M1454.41 -39.24L1454.41 -39.24" stroke="hsl(228.5, 77.2%, 51.5%)" stroke-width="1.5"></path><path d="M1454.41 -39.24L1416.91 40.53" stroke="hsl(228.5, 77.2%, 51.5%)" stroke-width="1.5"></path><path d="M1454.41 -39.24L1551.29 84.06" stroke="hsl(228.5, 77.2%, 51.5%)" stroke-width="1.5"></path><path d="M1454.41 -39.24L1244.59 104.92" stroke="hsl(228.5, 77.2%, 51.5%)" stroke-width="1.5"></path><path d="M1416.91 40.53L1416.91 40.53" stroke="hsl(228.5, 77.2%, 51.5%)" stroke-width="1.5"></path><path d="M1416.91 40.53L1551.29 84.06" stroke="hsl(228.5, 77.2%, 51.5%)" stroke-width="1.5"></path><path d="M1452.6 252.49L1452.6 252.49" stroke="hsl(228.5, 77.2%, 51.5%)" stroke-width="1.5"></path><path d="M1452.6 252.49L1424.8 338.57" stroke="hsl(228.5, 77.2%, 51.5%)" stroke-width="1.5"></path><path d="M1452.6 252.49L1551.29 84.06" stroke="hsl(228.5, 77.2%, 51.5%)" stroke-width="1.5"></path><path d="M1452.6 252.49L1416.91 40.53" stroke="hsl(228.5, 77.2%, 51.5%)" stroke-width="1.5"></path><path d="M1424.8 338.57L1424.8 338.57" stroke="hsl(228.5, 77.2%, 51.5%)" stroke-width="1.5"></path><path d="M1389.05 558.99L1389.05 558.99" stroke="hsl(228.5, 77.2%, 51.5%)" stroke-width="1.5"></path><path d="M1389.05 558.99L1544.32 558.51" stroke="hsl(228.5, 77.2%, 51.5%)" stroke-width="1.5"></path><path d="M1389.05 558.99L1276.81 383.74" stroke="hsl(228.5, 77.2%, 51.5%)" stroke-width="1.5"></path><path d="M1389.05 558.99L1424.8 338.57" stroke="hsl(228.5, 77.2%, 51.5%)" stroke-width="1.5"></path><path d="M1551.29 84.06L1551.29 84.06" stroke="hsl(228.5, 77.2%, 51.5%)" stroke-width="1.5"></path><path d="M1544.32 558.51L1544.32 558.51" stroke="hsl(228.5, 77.2%, 51.5%)" stroke-width="1.5"></path><path d="M1544.32 558.51L1308.64 495.8" stroke="hsl(228.5, 77.2%, 51.5%)" stroke-width="1.5"></path><circle r="25" cx="199.65" cy="551.88" fill="url(&quot;#SvgjsRadialGradient1370&quot;)"></circle><circle r="25" cx="943.92" cy="535.36" fill="url(&quot;#SvgjsRadialGradient1370&quot;)"></circle><circle r="25" cx="1119.79" cy="669.62" fill="url(&quot;#SvgjsRadialGradient1370&quot;)"></circle><circle r="25" cx="1308.02" cy="193.65" fill="url(&quot;#SvgjsRadialGradient1370&quot;)"></circle><circle r="25" cx="1571.64" cy="222.83" fill="url(&quot;#SvgjsRadialGradient1370&quot;)"></circle><circle r="25" cx="1564.03" cy="382" fill="url(&quot;#SvgjsRadialGradient1370&quot;)"></circle><circle r="5" cx="-78.02" cy="503.2" fill="#8b9ad9"></circle><circle r="5" cx="-51.22" cy="677.3" fill="#8b9ad9"></circle><circle r="5" cx="87.4" cy="539.83" fill="#8b9ad9"></circle><circle r="5" cx="84.46" cy="682.99" fill="#8b9ad9"></circle><circle r="5" cx="395.6" cy="561.72" fill="#8b9ad9"></circle><circle r="5" cx="513.97" cy="536.42" fill="#8b9ad9"></circle><circle r="5" cx="657.28" cy="377.01" fill="#8b9ad9"></circle><circle r="5" cx="683.36" cy="496.01" fill="#8b9ad9"></circle><circle r="5" cx="659.5" cy="675.56" fill="#8b9ad9"></circle><circle r="5" cx="804.85" cy="388.12" fill="#8b9ad9"></circle><circle r="5" cx="854.88" cy="521.36" fill="#8b9ad9"></circle><circle r="5" cx="862.26" cy="709.97" fill="#8b9ad9"></circle><circle r="5" cx="1001.02" cy="408.53" fill="#8b9ad9"></circle><circle r="5" cx="1005.13" cy="674.66" fill="#8b9ad9"></circle><circle r="5" cx="1139.3" cy="338.37" fill="#8b9ad9"></circle><circle r="5" cx="1108.27" cy="513.36" fill="#8b9ad9"></circle><circle r="5" cx="1241.8" cy="-83.65" fill="#8b9ad9"></circle><circle r="5" cx="1244.59" cy="104.92" fill="#8b9ad9"></circle><circle r="5" cx="1276.81" cy="383.74" fill="#8b9ad9"></circle><circle r="5" cx="1308.64" cy="495.8" fill="#8b9ad9"></circle><circle r="5" cx="1270.88" cy="658.57" fill="#8b9ad9"></circle><circle r="5" cx="1454.41" cy="-39.24" fill="#8b9ad9"></circle><circle r="5" cx="1416.91" cy="40.53" fill="#8b9ad9"></circle><circle r="5" cx="1452.6" cy="252.49" fill="#8b9ad9"></circle><circle r="5" cx="1424.8" cy="338.57" fill="#8b9ad9"></circle><circle r="5" cx="1389.05" cy="558.99" fill="#8b9ad9"></circle><circle r="5" cx="1551.29" cy="84.06" fill="#8b9ad9"></circle><circle r="5" cx="1544.32" cy="558.51" fill="#8b9ad9"></circle></g><defs><mask id="SvgjsMask1368"><rect width="1440" height="560" fill="#ffffff"></rect></mask><linearGradient x1="15.28%" y1="-39.29%" x2="84.72%" y2="139.29%" gradientUnits="userSpaceOnUse" id="SvgjsLinearGradient1369"><stop stop-color="#0e2a47" offset="0"></stop><stop stop-color="rgba(0, 158, 148, 1)" offset="1"></stop></linearGradient><radialGradient id="SvgjsRadialGradient1370"><stop stop-color="#ffffff" offset="0.1"></stop><stop stop-color="#1735b3" offset="0.2"></stop><stop stop-color="rgba(23, 53, 179, 0)" offset="1"></stop></radialGradient></defs></svg>